<svg xmlns="http://www.w3.org/2000/svg" viewBox="0 0 24 24">
    <path d="M17.75 6.75C17.75 9.17 15.82 11.1 13.4 11.24V11.25C13.4 11.25 13.39 11.25 13.39 11.25C11.5 11.39 9.9 10.04 9.9 8.15C9.9 6.26 11.5 4.91 13.39 5.05C13.39 5.05 13.4 5.05 13.4 5.05V5.06C14.7 5.16 15.75 6.13 15.75 7.45C15.75 8.77 14.7 9.74 13.4 9.84V9.85C13.4 9.85 13.39 9.85 13.39 9.85C11.5 9.99 9.9 8.64 9.9 6.75C9.9 4.86 11.5 3.51 13.39 3.65C13.39 3.65 13.4 3.65 13.4 3.65V3.66C14.7 3.76 15.75 4.73 15.75 6.05C15.75 7.37 14.7 8.34 13.4 8.44V8.45C13.4 8.45 13.39 8.45 13.39 8.45C11.5 8.59 9.9 7.24 9.9 5.35C9.9 3.46 11.5 2.11 13.39 2.25C13.39 2.25 13.4 2.25 13.4 2.25V2.26C14.7 2.36 15.75 3.33 15.75 4.65C15.75 5.97 14.7 6.94 13.4 7.04V7.05C13.4 7.05 13.39 7.05 13.39 7.05C11.5 7.19 9.9 5.84 9.9 3.95C9.9 2.06 11.5 0.71 13.39 0.85C13.39 0.85 13.4 0.85 13.4 0.85V0.86C14.7 0.96 15.75 1.93 15.75 3.25C15.75 4.57 14.7 5.54 13.4 5.64V5.65C13.4 5.65 13.39 5.65 13.39 5.65C11.5 5.79 9.9 4.44 9.9 2.55C9.9 0.66 11.5 -0.69 13.39 -0.55C13.39 -0.55 13.4 -0.55 13.4 -0.55V-0.54C14.7 -0.44 15.75 0.53 15.75 1.85C15.75 3.17 14.7 4.14 13.4 4.24V4.25C13.4 4.25 13.39 4.25 13.39 4.25C11.5 4.39 9.9 3.04 9.9 1.15C9.9 -0.74 11.5 -2.09 13.39 -1.95C13.39 -1.95 13.4 -1.95 13.4 -1.95V-1.94C14.7 -1.84 15.75 -0.87 15.75 0.45C15.75 1.77 14.7 2.74 13.4 2.84V2.85C13.4 2.85 13.39 2.85 13.39 2.85C11.5 2.99 9.9 1.64 9.9 -0.25C9.9 -2.14 11.5 -3.49 13.39 -3.35C13.39 -3.35 13.4 -3.35 13.4 -3.35V-3.34C14.7 -3.24 15.75 -2.27 15.75 -0.95C15.75 0.37 14.7 1.34 13.4 1.44V1.45C13.4 1.45 13.39 1.45 13.39 1.45C11.5 1.59 9.9 0.24 9.9 -1.65C9.9 -3.54 11.5 -4.89 13.39 -4.75C13.39 -4.75 13.4 -4.75 13.4 -4.75V-4.74C14.7 -4.64 15.75 -3.67 15.75 -2.35C15.75 -1.03 14.7 -0.06 13.4 0.04V0.05C13.4 0.05 13.39 0.05 13.39 0.05C11.5 0.19 9.9 -1.16 9.9 -3.05C9.9 -4.94 11.5 -6.29 13.39 -6.15C13.39 -6.15 13.4 -6.15 13.4 -6.15V-6.14C14.7 -6.04 15.75 -5.07 15.75 -3.75C15.75 -2.43 14.7 -1.46 13.4 -1.36V-1.35C13.4 -1.35 13.39 -1.35 13.39 -1.35C11.5 -1.21 9.9 -2.56 9.9 -4.45C9.9 -6.34 11.5 -7.69 13.39 -7.55C13.39 -7.55 13.4 -7.55 13.4 -7.55V-7.54C14.7 -7.44 15.75 -6.47 15.75 -5.15C15.75 -3.83 14.7 -2.86 13.4 -2.76V-2.75C13.4 -2.75 13.39 -2.75 13.39 -2.75C11.5 -2.61 9.9 -3.96 9.9 -5.85C9.9 -7.74 11.5 -9.09 13.39 -8.95C13.39 -8.95 13.4 -8.95 13.4 -8.95V-8.94C14.7 -8.84 15.75 -7.87 15.75 -6.55C15.75 -5.23 14.7 -4.26 13.4 -4.16V-4.15C13.4 -4.15 13.39 -4.15 13.39 -4.15C11.5 -4.01 9.9 -5.36 9.9 -7.25C9.9 -9.14 11.5 -10.49 13.39 -10.35C13.39 -10.35 13.4 -10.35 13.4 -10.35V-10.34C14.7 -10.24 15.75 -9.27 15.75 -7.95C15.75 -6.63 14.7 -5.66 13.4 -5.56V-5.55C13.4 -5.55 13.39 -5.55 13.39 -5.55C11.5 -5.41 9.9 -6.76 9.9 -8.65C9.9 -10.54 11.5 -11.89 13.39 -11.75C13.39 -11.75 13.4 -11.75 13.4 -11.75V-11.74C14.7 -11.64 15.75 -10.67 15.75 -9.35C15.75 -8.03 14.7 -7.06 13.4 -6.96V-6.95C13.4 -6.95 13.39 -6.95 13.39 -6.95C11.5 -6.81 9.9 -8.16 9.9 -10.05C9.9 -11.94 11.5 -13.29 13.39 -13.15C13.39 -13.15 13.4 -13.15 13.4 -13.15V-13.14C14.7 -13.04 15.75 -12.07 15.75 -10.75C15.75 -9.43 14.7 -8.46 13.4 -8.36V-8.35C13.4 -8.35 13.39 -8.35 13.39 -8.35C11.5 -8.21 9.9 -9.56 9.9 -11.45C9.9 -13.34 11.5 -14.69 13.39 -14.55C13.39 -14.55 13.4 -14.55 13.4 -14.55V-14.54C14.7 -14.44 15.75 -13.47 15.75 -12.15C15.75 -10.83 14.7 -9.86 13.4 -9.76V-9.75C13.4 -9.75 13.39 -9.75 13.39 -9.75C11.5 -9.61 9.9 -10.96 9.9 -12.85C9.9 -14.74 11.5 -16.09 13.39 -15.95C13.39 -15.95 13.4 -15.95 13.4 -15.95V-15.94C14.7 -15.84 15.75 -14.87 15.75 -13.55C15.75 -12.23 14.7 -11.26 13.4 -11.16V-11.15C13.4 -11.15 13.39 -11.15 13.39 -11.15C11.5 -11.01 9.9 -12.36 9.9 -14.25C9.9 -16.14 11.5 -17.49 13.39 -17.35C13.39 -17.35 13.4 -17.35 13.4 -17.35V-17.34C14.7 -17.24 15.75 -16.27 15.75 -14.95C15.75 -13.63 14.7 -12.66 13.4 -12.56V-12.55C13.4 -12.55 13.39 -12.55 13.39 -12.55C11.5 -12.41 9.9 -13.76 9.9 -15.65C9.9 -17.54 11.5 -18.89 13.39 -18.75C13.39 -18.75 13.4 -18.75 13.4 -18.75V-18.74C14.7 -18.64 15.75 -17.67 15.75 -16.35C15.75 -15.03 14.7 -14.06 13.4 -13.96V-13.95C13.4 -13.95 13.39 -13.95 13.39 -13.95C11.5 -13.81 9.9 -15.16 9.9 -17.05C9.9 -18.94 11.5 -20.29 13.39 -20.15C13.39 -20.15 13.4 -20.15 13.4 -20.15V-20.14C14.7 -20.04 15.75 -19.07 15.75 -17.75C15.75 -16.43 14.7 -15.46 13.4 -15.36V-15.35C13.4 -15.35 13.39 -15.35 13.39 -15.35C11.5 -15.21 9.9 -16.56 9.9 -18.45C9.9 -20.34 11.5 -21.69 13.39 -21.55C13.39 -21.55 13.4 -21.55 13.4 -21.55V-21.54C14.7 -21.44 15.75 -20.47 15.75 -19.15C15.75 -17.83 14.7 -16.86 13.4 -16.76V-16.75C13.4 -16.75 13.39 -16.75 13.39 -16.75C11.5 -16.61 9.9 -17.96 9.9 -19.85C9.9 -21.74 11.5 -23.09 13.39 -22.95C13.39 -22.95 13.4 -22.95 13.4 -22.95V-22.94C14.7 -22.84 15.75 -21.87 15.75 -20.55C15.75 -19.23 14.7 -18.26 13.4 -18.16V-18.15C13.4 -18.15 13.39 -18.15 13.39 -18.15C11.5 -18.01 9.9 -19.36 9.9 -21.25C9.9 -23.14 11.5 -24.49 13.39 -24.35C13.39 -24.35 13.4 -24.35 13.4 -24.35V-24.34C14.7 -24.24 15.75 -23.27 15.75 -21.95C15.75 -20.63 14.7 -19.66 13.4 -19.56V-19.55C13.4 -19.55 13.39 -19.55 13.39 -19.55C11.5 -19.41 9.9 -20.76 9.9 -22.65C9.9 -24.54 11.5 -25.89 13.39 -25.75C13.39 -25.75 13.4 -25.75 13.4 -25.75V-25.74C14.7 -25.64 15.75 -24.67 15.75 -23.35C15.75 -22.03 14.7 -21.06 13.4 -20.96V-20.95C13.4 -20.95 13.39 -20.95 13.39 -20.95C11.5 -20.81 9.9 -22.16 9.9 -24.05C9.9 -25.94 11.5 -27.29 13.39 -27.15C13.39 -27.15 13.4 -27.15 13.4 -27.15V-27.14C14.7 -27.04 15.75 -26.07 15.75 -24.75C15.75 -23.43 14.7 -22.46 13.4 -22.36V-22.35C13.4 -22.35 13.39 -22.35 13.39 -22.35C11.5 -22.21 9.9 -23.56 9.9 -25.45C9.9 -27.34 11.5 -28.69 13.39 -28.55C13.39 -28.55 13.4 -28.55 13.4 -28.55V-28.54C14.7 -28.44 15.75 -27.47 15.75 -26.15C15.75 -24.83 14.7 -23.86 13.4 -23.76V-23.75C13.4 -23.75 13.39 -23.75 13.39 -23.75C11.5 -23.61 9.9 -24.96 9.9 -26.85C9.9 -28.74 11.5 -30.09 13.39 -29.95C13.39 -29.95 13.4 -29.95 13.4 -29.95V-29.94C14.7 -29.84 15.75 -28.87 15.75 -27.55C15.75 -26.23 14.7 -25.26 13.4 -25.16V-25.15C13.4 -25.15 13.39 -25.15 13.39 -25.15C11.5 -25.01 9.9 -26.36 9.9 -28.25C9.9 -30.14 11.5 -31.49 13.39 -31.35C13.39 -31.35 13.4 -31.35 13.4 -31.35V-31.34C14.7 -31.24 15.75 -30.27 15.75 -28.95C15.75 -27.63 14.7 -26.66 13.4 -26.56V26.55C13.4 26.55 13.39 26.55 13.39 26.55C11.5 26.69 9.9 25.34 9.9 23.45C9.9 21.56 11.5 20.21 13.39 20.35C13.39 20.35 13.4 20.35 13.4 20.35V20.36C14.7 20.46 15.75 21.43 15.75 22.75C15.75 24.07 14.7 25.04 13.4 25.14V25.15C13.4 25.15 13.39 25.15 13.39 25.15C11.5 25.29 9.9 23.94 9.9 22.05C9.9 20.16 11.5 18.81 13.39 18.95C13.39 18.95 13.4 18.95 13.4 18.95V18.96C14.7 19.06 15.75 20.03 15.75 21.35C15.75 22.67 14.7 23.64 13.4 23.74V23.75C13.4 23.75 13.39 23.75 13.39 23.75C11.5 23.89 9.9 22.54 9.9 20.65C9.9 18.76 11.5 17.41 13.39 17.55C13.39 17.55 13.4 17.55 13.4 17.55V17.56C14.7 17.66 15.75 18.63 15.75 19.95C15.75 21.27 14.7 22.24 13.4 22.34V22.35C13.4 22.35 13.39 22.35 13.39 22.35C11.5 22.49 9.9 21.14 9.9 19.25C9.9 17.36 11.5 16.01 13.39 16.15C13.39 16.15 13.4 16.15 13.4 16.15V16.16C14.7 16.26 15.75 17.23 15.75 18.55C15.75 19.87 14.7 20.84 13.4 20.94V20.95C13.4 20.95 13.39 20.95 13.39 20.95C11.5 21.09 9.9 19.74 9.9 17.85C9.9 15.96 11.5 14.61 13.39 14.75C13.39 14.75 13.4 14.75 13.4 14.75V14.76C14.7 14.86 15.75 15.83 15.75 17.15C15.75 18.47 14.7 19.44 13.4 19.54V19.55C13.4 19.55 13.39 19.55 13.39 19.55C11.5 19.69 9.9 18.34 9.9 16.45C9.9 14.56 11.5 13.21 13.39 13.35C13.39 13.35 13.4 13.35 13.4 13.35V13.36C14.7 13.46 15.75 14.43 15.75 15.75C15.75 17.07 14.7 18.04 13.4 18.14V18.15C13.4 18.15 13.39 18.15 13.39 18.15C11.5 18.29 9.9 16.94 9.9 15.05C9.9 13.16 11.5 11.81 13.39 11.95C13.39 11.95 13.4 11.95 13.4 11.95V11.96C14.7 12.06 15.75 13.03 15.75 14.35C15.75 15.67 14.7 16.64 13.4 16.74V16.75C13.4 16.75 13.39 16.75 13.39 16.75C11.5 16.89 9.9 15.54 9.9 13.65C9.9 11.76 11.5 10.41 13.39 10.55C13.39 10.55 13.4 10.55 13.4 10.55V10.56C14.7 10.66 15.75 11.63 15.75 12.95C15.75 14.27 14.7 15.24 13.4 15.34V15.35C13.4 15.35 13.39 15.35 13.39 15.35C11.5 15.49 9.9 14.14 9.9 12.25C9.9 10.36 11.5 9.01 13.39 9.15C13.39 9.15 13.4 9.15 13.4 9.15V9.16C14.7 9.26 15.75 10.23 15.75 11.55C15.75 12.87 14.7 13.84 13.4 13.94V13.95C13.4 13.95 13.39 13.95 13.39 13.95C11.5 14.09 9.9 12.74 9.9 10.85C9.9 8.96 11.5 7.61 13.39 7.75C13.39 7.75 13.4 7.75 13.4 7.75V7.76C14.7 7.86 15.75 8.83 15.75 10.15C15.75 11.47 14.7 12.44 13.4 12.54V12.55C13.4 12.55 13.39 12.55 13.39 12.55C11.5 12.69 9.9 11.34 9.9 9.45C9.9 7.56 11.5 6.21 13.39 6.35C13.39 6.35 13.4 6.35 13.4 6.35V6.36C14.7 6.46 15.75 7.43 15.75 8.75C15.75 10.07 14.7 11.04 13.4 11.14V11.15C13.4 11.15 13.39 11.15 13.39 11.15C11.5 11.29 9.9 9.94 9.9 8.05C9.9 6.16 11.5 4.81 13.39 4.95C13.39 4.95 13.4 4.95 13.4 4.95V4.96C14.7 5.06 15.75 6.03 15.75 7.35C15.75 8.67 14.7 9.64 13.4 9.74V9.75C13.4 9.75 13.39 9.75 13.39 9.75C11.5 9.89 9.9 8.54 9.9 6.65C9.9 4.76 11.5 3.41 13.39 3.55C13.39 3.55 13.4 3.55 13.4 3.55V3.56C14.7 3.66 15.75 4.63 15.75 5.95C15.75 7.27 14.7 8.24 13.4 8.34V8.35C13.4 8.35 13.39 8.35 13.39 8.35C11.5 8.49 9.9 7.14 9.9 5.25C9.9 3.36 11.5 2.01 13.39 2.15C13.39 2.15 13.4 2.15 13.4 2.15V2.16C14.7 2.26 15.75 3.23 15.75 4.55C15.75 5.87 14.7 6.84 13.4 6.94V6.95C13.4 6.95 13.39 6.95 13.39 6.95C11.5 7.09 9.9 5.74 9.9 3.85C9.9 1.96 11.5 0.61 13.39 0.75C13.39 0.75 13.4 0.75 13.4 0.75V0.76C14.7 0.86 15.75 1.83 15.75 3.15C15.75 4.47 14.7 5.44 13.4 5.54V5.55C13.4 5.55 13.39 5.55 13.39 5.55C11.5 5.69 9.9 4.34 9.9 2.45C9.9 0.56 11.5 -0.79 13.39 -0.65C13.39 -0.65 13.4 -0.65 13.4 -0.65V-0.64C14.7 -0.54 15.75 0.43 15.75 1.75C15.75 3.07 14.7 4.04 13.4 4.14V4.15C13.4 4.15 13.39 4.15 13.39 4.15C11.5 4.29 9.9 2.94 9.9 1.05C9.9 -0.84 11.5 -2.19 13.39 -2.05C13.39 -2.05 13.4 -2.05 13.4 -2.05V-2.04C14.7 -1.94 15.75 -0.97 15.75 0.35C15.75 1.67 14.7 2.64 13.4 2.74V2.75C13.4 2.75 13.39 2.75 13.39 2.75C11.5 2.89 9.9 1.54 9.9 -0.35C9.9 -2.24 11.5 -3.59 13.39 -3.45C13.39 -3.45 13.4 -3.45 13.4 -3.45V-3.44C14.7 -3.34 15.75 -2.37 15.75 -1.05C15.75 0.27 14.7 1.24 13.4 1.34V1.35C13.4 1.35 13.39 1.35 13.39 1.35C11.5 1.49 9.9 0.14 9.9 -1.75C9.9 -3.64 11.5 -4.99 13.39 -4.85C13.39 -4.85 13.4 -4.85 13.4 -4.85V-4.84C14.7 -4.74 15.75 -3.77 15.75 -2.45C15.75 -1.13 14.7 -0.16 13.4 -0.06V-0.05C13.4 -0.05 13.39 -0.05 13.39 -0.05C11.5 0.09 9.9 -1.26 9.9 -3.15C9.9 -5.04 11.5 -6.39 13.39 -6.25C13.39 -6.25 13.4 -6.25 13.4 -6.25V-6.24C14.7 -6.14 15.75 -5.17 15.75 -3.85C15.75 -2.53 14.7 -1.56 13.4 -1.46V-1.45C13.4 -1.45 13.39 -1.45 13.39 -1.45C11.5 -1.31 9.9 -2.66 9.9 -4.55C9.9 -6.44 11.5 -7.79 13.39 -7.65C13.39 -7.65 13.4 -7.65 13.4 -7.65V-7.64C14.7 -7.54 15.75 -6.57 15.75 -5.25C15.75 -3.93 14.7 -2.96 13.4 -2.86V-2.85C13.4 -2.85 13.39 -2.85 13.39 -2.85C11.5 -2.71 9.9 -4.06 9.9 -5.95C9.9 -7.84 11.5 -9.19 13.39 -9.05C13.39 -9.05 13.4 -9.05 13.4 -9.05V-9.04C14.7 -8.94 15.75 -7.97 15.75 -6.65C15.75 -5.33 14.7 -4.36 13.4 -4.26V-4.25C13.4 -4.25 13.39 -4.25 13.39 -4.25C11.5 -4.11 9.9 -5.46 9.9 -7.35C9.9 -9.24 11.5 -10.59 13.39 -10.45C13.39 -10.45 13.4 -10.45 13.4 -10.45V-10.44C14.7 -10.34 15.75 -9.37 15.75 -8.05C15.75 -6.73 14.7 -5.76 13.4 -5.66V-5.65C13.4 -5.65 13.39 -5.65 13.39 -5.65C11.5 -5.51 9.9 -6.86 9.9 -8.75C9.9 -10.64 11.5 -11.99 13.39 -11.85C13.39 -11.85 13.4 -11.85 13.4 -11.85V-11.84C14.7 -11.74 15.75 -10.77 15.75 -9.45C15.75 -8.13 14.7 -7.16 13.4 -7.06V-7.05C13.4 -7.05 13.39 -7.05 13.39 -7.05C11.5 -6.91 9.9 -8.26 9.9 -10.15C9.9 -12.04 11.5 -13.39 13.39 -13.25C13.39 -13.25 13.4 -13.25 13.4 -13.25V-13.24C14.7 -13.14 15.75 -12.17 15.75 -10.85C15.75 -9.53 14.7 -8.56 13.4 -8.46V-8.45C13.4 -8.45 13.39 -8.45 13.39 -8.45C11.5 -8.31 9.9 -9.66 9.9 -11.55C9.9 -13.44 11.5 -14.79 13.39 -14.65C13.39 -14.65 13.4 -14.65 13.4 -14.65V-14.64C14.7 -14.54 15.75 -13.57 15.75 -12.25C15.75 -10.93 14.7 -9.96 13.4 -9.86V-9.85C13.4 -9.85 13.39 -9.85 13.39 -9.85C11.5 -9.71 9.9 -11.06 9.9 -12.95C9.9 -14.84 11.5 -16.19 13.39 -16.05C13.39 -16.05 13.4 -16.05 13.4 -16.05V-16.04C14.7 -15.94 15.75 -14.97 15.75 -13.65C15.75 -12.33 14.7 -11.36 13.4 -11.26V-11.25C13.4 -11.25 13.39 -11.25 13.39 -11.25Z" transform="translate(0 12)" fill="#333"/>
</svg>