<svg xmlns="http://www.w3.org/2000/svg" xmlns:xlink="http://www.w3.org/1999/xlink" viewBox="0 0 64 64"><defs><style>.cls-1{fill:#fdbb11;}.cls-2{fill:#ffe003;}.cls-3{fill:#f7931e;}.cls-4{fill:none;}</style><symbol id="sun_big_full" data-name="sun big full" viewBox="0 0 38 38"><polygon class="cls-1" points="19 7.6 26.27 1.45 27.06 10.94 36.55 11.73 30.4 19 36.55 26.27 27.06 27.06 26.27 36.55 19 30.4 11.73 36.55 10.94 27.06 1.45 26.27 7.6 19 1.45 11.73 10.94 10.94 11.73 1.45 19 7.6"/><polygon class="cls-1" points="14.64 8.47 19 0 23.36 8.47 32.44 5.57 29.53 14.64 38 19 29.53 23.36 32.44 32.44 23.36 29.53 19 38 14.64 29.53 5.57 32.44 8.47 23.36 0 19 8.47 14.64 5.57 5.57 14.64 8.47"/><g id="_Group_" data-name="&lt;Group&gt;"><path class="cls-2" d="M19,29.5A10.5,10.5,0,1,1,29.5,19,10.51,10.51,0,0,1,19,29.5Z"/><path class="cls-3" d="M19,9A10,10,0,1,1,9,19,10,10,0,0,1,19,9m0-1A11,11,0,1,0,30,19,11,11,0,0,0,19,8Z"/></g></symbol></defs><title>A001D_LB</title><g id="A001D"><use id="sun_big_full-3" data-name="sun big full" width="38" height="38" transform="translate(13 2)" xlink:href="#sun_big_full"/><rect class="cls-4" width="64" height="64"/></g></svg>