<svg xmlns="http://www.w3.org/2000/svg" xmlns:xlink="http://www.w3.org/1999/xlink" viewBox="0 0 64 64"><defs><style>.cls-1{fill:#1d475e;}.cls-2{fill:#2c3e44;}.cls-3{fill:#ffe000;}.cls-4{fill:none;}</style><symbol id="moon_full" data-name="moon full" viewBox="0 0 32 32"><path class="cls-1" d="M16,31.5A15.5,15.5,0,1,1,31.5,16,15.52,15.52,0,0,1,16,31.5Z"/><path class="cls-2" d="M16,1A15,15,0,1,1,1,16,15,15,0,0,1,16,1m0-1A16,16,0,1,0,32,16,16,16,0,0,0,16,0Z"/><path class="cls-3" d="M15.05,31.5C7,31.5.5,24.55.5,16S7,.5,15.05.5a18.51,18.51,0,0,1,8.25,2C16.08,2.66,9.56,9,9.56,16S16.08,29.34,23.3,29.5A18.51,18.51,0,0,1,15.05,31.5Z"/><path class="cls-2" d="M15.05,1a18.49,18.49,0,0,1,6.33,1.18C14.6,3.27,9.06,9.26,9.06,16S14.6,28.73,21.38,29.82A18.49,18.49,0,0,1,15.05,31C7.3,31,1,24.27,1,16S7.3,1,15.05,1m0-1C6.74,0,0,7.16,0,16S6.74,32,15.05,32c3.31,0,7.46-1.07,9.95-3l-.46,0-1,0c-6.75,0-13.51-5.82-13.51-13S16.82,3,23.57,3l1,0L25,3c-2.49-1.93-6.64-3-9.95-3Z"/></symbol></defs><title>A001N_LB</title><g id="A001N"><use width="32" height="32" transform="translate(17 6) scale(0.94)" xlink:href="#moon_full"/><rect class="cls-4" width="64" height="64"/></g></svg>