<svg xmlns="http://www.w3.org/2000/svg" xmlns:xlink="http://www.w3.org/1999/xlink" viewBox="0 0 64 64"><defs><style>.cls-1{fill:#d1d3d4;}.cls-2{fill:#fff;}.cls-3{fill:#fdbb11;}.cls-4{fill:#ffe003;}.cls-5{fill:#f7931e;}.cls-6{fill:none;}</style><symbol id="sun_big_full" data-name="sun big full" viewBox="0 0 38 38"><polygon class="cls-3" points="19 7.6 26.27 1.45 27.06 10.94 36.55 11.73 30.4 19 36.55 26.27 27.06 27.06 26.27 36.55 19 30.4 11.73 36.55 10.94 27.06 1.45 26.27 7.6 19 1.45 11.73 10.94 10.94 11.73 1.45 19 7.6"/><polygon class="cls-3" points="14.64 8.47 19 0 23.36 8.47 32.44 5.57 29.53 14.64 38 19 29.53 23.36 32.44 32.44 23.36 29.53 19 38 14.64 29.53 5.57 32.44 8.47 23.36 0 19 8.47 14.64 5.57 5.57 14.64 8.47"/><g id="_Group_" data-name="&lt;Group&gt;"><path class="cls-4" d="M19,29.5A10.5,10.5,0,1,1,29.5,19,10.51,10.51,0,0,1,19,29.5Z"/><path class="cls-5" d="M19,9A10,10,0,1,1,9,19,10,10,0,0,1,19,9m0-1A11,11,0,1,0,30,19,11,11,0,0,0,19,8Z"/></g></symbol><symbol id="small_cloud_lb" data-name="small cloud lb" viewBox="0 0 36 15"><g id="cloud_small_3" data-name="cloud small 3"><path class="cls-1" d="M36,8.94c-.16-1.62-1.68-2.86-3.77-3.32C31.8,3.2,28.87,1.5,25.45,1.77A9,9,0,0,0,24.27,2,7.46,7.46,0,0,0,18.52,0a7.55,7.55,0,0,0-5.79,3.34,8.83,8.83,0,0,0-2,.56A7.31,7.31,0,0,0,6.91,6.61a9.4,9.4,0,0,0-1.3.06c-3.3.39-5.8,2.39-5.6,4.48s3.06,3.47,6.36,3.08a9.37,9.37,0,0,0,1.74-.37,8.84,8.84,0,0,0,5.29.9,10,10,0,0,0,3.3-1,7.29,7.29,0,0,0,5.25,1.14A8.44,8.44,0,0,0,26,13.41a8.44,8.44,0,0,0,4.07.47C33.57,13.47,36.22,11.26,36,8.94Z"/><path class="cls-2" d="M24.36,5.46c-.37,0-.73.05-1.08.1A9.52,9.52,0,0,0,18,4.46a8.25,8.25,0,0,0-5.28,1.93C10,6.66,8,7.72,8.11,8.87s2.75,2.14,5.83,2h0a9.86,9.86,0,0,0,4.88.92,9.85,9.85,0,0,0,3.89-1,12.35,12.35,0,0,0,2.23.09c3.27-.16,5.78-1.52,5.62-3S27.62,5.3,24.36,5.46Z"/></g></symbol></defs><title>A002D_LB</title><g id="A002D"><use id="sun_big_full-3" data-name="sun big full" width="38" height="38" transform="translate(10 2)" xlink:href="#sun_big_full"/><use width="36" height="15" transform="translate(22 26)" xlink:href="#small_cloud_lb"/><rect class="cls-6" width="64" height="64"/></g></svg>