<svg xmlns="http://www.w3.org/2000/svg" xmlns:xlink="http://www.w3.org/1999/xlink" viewBox="0 0 64 64"><defs><style>.cls-1{fill:#1d475e;}.cls-2{fill:#2c3e44;}.cls-3{fill:#ffe000;}.cls-4{fill:#d1d3d4;}.cls-5{fill:#fff;}.cls-6{fill:none;}</style><symbol id="moon_full" data-name="moon full" viewBox="0 0 32 32"><path class="cls-1" d="M16,31.5A15.5,15.5,0,1,1,31.5,16,15.52,15.52,0,0,1,16,31.5Z"/><path class="cls-2" d="M16,1A15,15,0,1,1,1,16,15,15,0,0,1,16,1m0-1A16,16,0,1,0,32,16,16,16,0,0,0,16,0Z"/><path class="cls-3" d="M15.05,31.5C7,31.5.5,24.55.5,16S7,.5,15.05.5a18.51,18.51,0,0,1,8.25,2C16.08,2.66,9.56,9,9.56,16S16.08,29.34,23.3,29.5A18.51,18.51,0,0,1,15.05,31.5Z"/><path class="cls-2" d="M15.05,1a18.49,18.49,0,0,1,6.33,1.18C14.6,3.27,9.06,9.26,9.06,16S14.6,28.73,21.38,29.82A18.49,18.49,0,0,1,15.05,31C7.3,31,1,24.27,1,16S7.3,1,15.05,1m0-1C6.74,0,0,7.16,0,16S6.74,32,15.05,32c3.31,0,7.46-1.07,9.95-3l-.46,0-1,0c-6.75,0-13.51-5.82-13.51-13S16.82,3,23.57,3l1,0L25,3c-2.49-1.93-6.64-3-9.95-3Z"/></symbol><symbol id="small_cloud_lb" data-name="small cloud lb" viewBox="0 0 36 15"><g id="cloud_small_3" data-name="cloud small 3"><path class="cls-4" d="M36,8.94c-.16-1.62-1.68-2.86-3.77-3.32C31.8,3.2,28.87,1.5,25.45,1.77A9,9,0,0,0,24.27,2,7.46,7.46,0,0,0,18.52,0a7.55,7.55,0,0,0-5.79,3.34,8.83,8.83,0,0,0-2,.56A7.31,7.31,0,0,0,6.91,6.61a9.4,9.4,0,0,0-1.3.06c-3.3.39-5.8,2.39-5.6,4.48s3.06,3.47,6.36,3.08a9.37,9.37,0,0,0,1.74-.37,8.84,8.84,0,0,0,5.29.9,10,10,0,0,0,3.3-1,7.29,7.29,0,0,0,5.25,1.14A8.44,8.44,0,0,0,26,13.41a8.44,8.44,0,0,0,4.07.47C33.57,13.47,36.22,11.26,36,8.94Z"/><path class="cls-5" d="M24.36,5.46c-.37,0-.73.05-1.08.1A9.52,9.52,0,0,0,18,4.46a8.25,8.25,0,0,0-5.28,1.93C10,6.66,8,7.72,8.11,8.87s2.75,2.14,5.83,2h0a9.86,9.86,0,0,0,4.88.92,9.85,9.85,0,0,0,3.89-1,12.35,12.35,0,0,0,2.23.09c3.27-.16,5.78-1.52,5.62-3S27.62,5.3,24.36,5.46Z"/></g></symbol></defs><title>A002N_LB</title><g id="A002N"><use width="32" height="32" transform="translate(10 6) scale(0.94)" xlink:href="#moon_full"/><use width="36" height="15" transform="translate(20 26)" xlink:href="#small_cloud_lb"/><rect class="cls-6" width="64" height="64"/></g></svg>