<svg xmlns="http://www.w3.org/2000/svg" xmlns:xlink="http://www.w3.org/1999/xlink" viewBox="0 0 64 64"><defs><style>.cls-1{fill:#fdbb11;}.cls-2{fill:#ffe003;}.cls-3{fill:#f7931e;}.cls-4{fill:#fff;}.cls-5,.cls-8{fill:none;}.cls-5{stroke:#9d9fa2;stroke-miterlimit:10;stroke-width:1px;}.cls-6{fill:#c7c7c7;}.cls-7{fill:#999;}</style><symbol id="master_cloud_light_-_V2" data-name="master cloud light - V2" viewBox="0 0 54 37.87"><path class="cls-1" d="M49.54,18.3,54,16l-4.46-2.3,3.24-3.83-5-.42,1.53-4.77L44.54,6.21l-.42-5L40.3,4.46,38,0l-2.3,4.46L31.88,1.22l-.42,5L26.69,4.69l1.53,4.77-5,.42,1.59,1.88a10.3,10.3,0,0,1,2.27-.26,11,11,0,0,1,10.22,7.6,10.19,10.19,0,0,1,9.16,7.3l2.84.91-1.53-4.78,5-.42Z"/><path class="cls-2" d="M37.31,19.1A9.75,9.75,0,0,1,43.85,22a8.42,8.42,0,1,0-13.32-9.94A11.33,11.33,0,0,1,37.31,19.1Z"/><path class="cls-3" d="M30.54,12.11A8.42,8.42,0,1,1,43.85,22q.35.35.67.74a9.41,9.41,0,1,0-14.94-11C29.9,11.89,30.22,12,30.54,12.11Z"/><g id="new_cloud_gradient" data-name="new cloud gradient"><path class="cls-4" d="M36.92,20.84a7.05,7.05,0,0,0-1.54.17,8.64,8.64,0,0,0-8.3-7.76,8.23,8.23,0,0,0-7,4,7.85,7.85,0,0,0-3.91-1,8.48,8.48,0,0,0-8,6.19,6.42,6.42,0,0,0-.87-.06A7.19,7.19,0,0,0,.5,29.79a7.19,7.19,0,0,0,6.89,7.46H36.92c4.18,0,7.58-3.67,7.58-8.2S41.11,20.84,36.92,20.84Z"/><path class="cls-5" d="M36.92,20.84a7.05,7.05,0,0,0-1.54.17,8.64,8.64,0,0,0-8.3-7.76,8.23,8.23,0,0,0-7,4,7.85,7.85,0,0,0-3.91-1,8.48,8.48,0,0,0-8,6.19,6.42,6.42,0,0,0-.87-.06A7.19,7.19,0,0,0,.5,29.79a7.19,7.19,0,0,0,6.89,7.46H36.92c4.18,0,7.58-3.67,7.58-8.2S41.11,20.84,36.92,20.84Z"/></g><path class="cls-6" d="M41.17,29.12c-.16-1.65-1.7-2.92-3.81-3.4-.42-2.47-3.38-4.2-6.84-3.92a9,9,0,0,0-1.2.18,7.5,7.5,0,0,0-5.81-2,7.62,7.62,0,0,0-5.86,3.42,8.86,8.86,0,0,0-2,.57,7.39,7.39,0,0,0-3.87,2.74,9.41,9.41,0,0,0-1.31.06c-3.34.4-5.87,2.44-5.66,4.58s3.09,3.54,6.43,3.14A9.39,9.39,0,0,0,13,34.14a8.86,8.86,0,0,0,5.36.92,10.08,10.08,0,0,0,3.33-1A7.32,7.32,0,0,0,27,35.24a8.49,8.49,0,0,0,4.1-1.55,8.46,8.46,0,0,0,4.12.48C38.73,33.75,41.41,31.49,41.17,29.12Z"/><path class="cls-7" d="M30.89,24.28a11.19,11.19,0,0,0-1.29.17,8.94,8.94,0,0,0-6.26-1.82c-2.73.19-3.92,1.43-5.19,3.15-3.27.46-6.81,2.18-6.67,4.07.16,2,3.28,3.49,7,3.24h0a9.13,9.13,0,0,0,5.83,1.5A9.34,9.34,0,0,0,28.93,33a10.83,10.83,0,0,0,2.66.14c3.9-.27,6.91-2.48,6.72-4.93S34.79,24,30.89,24.28Z"/><path class="cls-4" d="M30.46,23.5a10.08,10.08,0,0,0-1.2.16,8.12,8.12,0,0,0-5.81-1.74,7.84,7.84,0,0,0-5.86,3c-3,.44-5.29,2.09-5.15,3.9s3,3.35,6.47,3.1h0a8.27,8.27,0,0,0,5.41,1.43,8.49,8.49,0,0,0,4.31-1.5,9.75,9.75,0,0,0,2.47.14c3.62-.26,6.41-2.37,6.24-4.72S34.08,23.24,30.46,23.5Z"/></symbol></defs><title>A003D_LB</title><g id="recuadro_64x64_por_artboard" data-name="recuadro 64x64 por artboard"><rect class="cls-8" width="64" height="64"/></g><g id="AOO3N_1" data-name="AOO3N 1"><use id="master_cloud_light_-_V2_simbol" data-name="master cloud light - V2  simbol" width="54" height="37.87" transform="translate(6 2) scale(1 1.01)" xlink:href="#master_cloud_light_-_V2"/></g></svg>