<svg xmlns="http://www.w3.org/2000/svg" xmlns:xlink="http://www.w3.org/1999/xlink" viewBox="0 0 64 64"><defs><style>.cls-1{fill:#1d475e;}.cls-2{fill:#ffe000;}.cls-3{fill:#2c3e44;}.cls-4{fill:#c7c7c7;}.cls-5{fill:#999;}.cls-6{fill:#828282;}.cls-7{fill:#ebebeb;}.cls-8{fill:none;}</style><symbol id="moon_cut_dark_cloud" data-name="moon cut dark cloud" viewBox="0 0 48.5 33"><g id="moon_cut_v2" data-name="moon cut v2"><path class="cls-1" d="M27.17,6.5a10.33,10.33,0,0,1,9.71,7.88h.32a9.21,9.21,0,0,1,8.11,5.17,11.62,11.62,0,1,0-19.09-13A9.39,9.39,0,0,1,27.17,6.5Z"/><path class="cls-2" d="M27.17,6.5a9.49,9.49,0,0,1,5.37,1.69A11,11,0,0,1,42,1.88,13.88,13.88,0,0,0,35.79.37a10.85,10.85,0,0,0-9.64,6.19A9.4,9.4,0,0,1,27.17,6.5Z"/><path class="cls-3" d="M26.68,6.53A11.24,11.24,0,1,1,45.13,19.21c.13.23.26.47.37.71A12,12,0,1,0,25.79,6.62C26.08,6.57,26.38,6.54,26.68,6.53Z"/><path class="cls-3" d="M26.58,6.53A10.46,10.46,0,0,1,35.79.75a13.87,13.87,0,0,1,4.75.88A11.29,11.29,0,0,0,32.21,8q.32.2.63.43a10.61,10.61,0,0,1,9.34-6.15l.72,0,.35,0A13.24,13.24,0,0,0,35.79,0,11.23,11.23,0,0,0,25.7,6.63C26,6.58,26.29,6.55,26.58,6.53Z"/></g><path class="cls-4" d="M36.92,16.09a7.05,7.05,0,0,0-1.54.17,8.64,8.64,0,0,0-8.3-7.76,8.23,8.23,0,0,0-7,4,7.85,7.85,0,0,0-3.91-1,8.48,8.48,0,0,0-8,6.19,6.42,6.42,0,0,0-.87-.06A7.19,7.19,0,0,0,.5,25,7.19,7.19,0,0,0,7.39,32.5H36.92c4.18,0,7.58-3.67,7.58-8.2S41.11,16.09,36.92,16.09Z"/><path class="cls-5" d="M36.92,33H7.39C3.31,33,0,29.43,0,25s3.31-8,7.39-8l.53,0A8.92,8.92,0,0,1,16.21,11a8.38,8.38,0,0,1,3.75.89A8.68,8.68,0,0,1,27.08,8a9.13,9.13,0,0,1,8.71,7.68,7.58,7.58,0,0,1,1.13-.08c4.45,0,8.08,3.9,8.08,8.7S41.38,33,36.92,33ZM7.39,18.08A6.7,6.7,0,0,0,1,25a6.7,6.7,0,0,0,6.39,7H36.92c3.9,0,7.08-3.46,7.08-7.7s-3.17-7.7-7.08-7.7a6.57,6.57,0,0,0-1.43.16l-.53.12-.07-.54A8.17,8.17,0,0,0,27.08,9a7.73,7.73,0,0,0-6.53,3.77l-.25.41-.42-.24a7.3,7.3,0,0,0-3.67-1,8,8,0,0,0-7.47,5.84l-.13.4-.42-.06A5.92,5.92,0,0,0,7.39,18.08Z"/><path class="cls-5" d="M41.17,24.37c-.16-1.65-1.7-2.92-3.81-3.4C36.93,18.5,34,16.76,30.52,17a9,9,0,0,0-1.2.18,7.5,7.5,0,0,0-5.81-2,7.62,7.62,0,0,0-5.86,3.42,8.86,8.86,0,0,0-2,.57A7.39,7.39,0,0,0,11.76,22a9.41,9.41,0,0,0-1.31.06c-3.34.4-5.87,2.44-5.66,4.58s3.09,3.54,6.43,3.14A9.39,9.39,0,0,0,13,29.39a8.86,8.86,0,0,0,5.36.92,10.08,10.08,0,0,0,3.33-1A7.32,7.32,0,0,0,27,30.49a8.49,8.49,0,0,0,4.1-1.55,8.46,8.46,0,0,0,4.12.48C38.73,29,41.41,26.74,41.17,24.37Z"/><path class="cls-6" d="M30.89,19.53a11.19,11.19,0,0,0-1.29.17,8.94,8.94,0,0,0-6.26-1.82c-2.73.19-3.92,1.43-5.19,3.15-3.27.46-6.81,2.18-6.67,4.07.16,2,3.28,3.49,7,3.24h0a9.13,9.13,0,0,0,5.83,1.5,9.34,9.34,0,0,0,4.64-1.57,10.83,10.83,0,0,0,2.66.14c3.9-.27,6.91-2.48,6.72-4.93S34.79,19.26,30.89,19.53Z"/><path class="cls-7" d="M30.46,18.75a10.08,10.08,0,0,0-1.2.16,8.12,8.12,0,0,0-5.81-1.74,7.84,7.84,0,0,0-5.86,3c-3,.44-5.29,2.09-5.15,3.9s3,3.35,6.47,3.1h0a8.27,8.27,0,0,0,5.41,1.43,8.49,8.49,0,0,0,4.31-1.5,9.75,9.75,0,0,0,2.47.14c3.62-.26,6.41-2.38,6.24-4.72S34.08,18.49,30.46,18.75Z"/></symbol></defs><title>A003N_LB</title><g id="recuadro_64x64_por_artboard" data-name="recuadro 64x64 por artboard"><rect class="cls-8" width="64" height="64"/></g><g id="AOO3N_2" data-name="AOO3N 2"><use id="dark_cloud_moon_cutSymbol" data-name="dark cloud moon cutSymbol" width="48.5" height="33" transform="translate(8 7) scale(0.99 1)" xlink:href="#moon_cut_dark_cloud"/></g></svg>