<?xml version="1.0" encoding="UTF-8"?><svg id="Layer_1" xmlns="http://www.w3.org/2000/svg" viewBox="0 0 64 64"><defs><style>.cls-1{fill:none;}.cls-2{fill:#ffe003;}.cls-3{fill:#f7931e;}.cls-4{fill:#fff;}.cls-5{fill:#fdbb11;}.cls-6{fill:#999;}.cls-7{fill:#9d9fa2;}.cls-8{fill:#c7c7c7;}</style></defs><g id="recuadro_64x64_por_artboard"><rect class="cls-1" width="64" height="64"/></g><g><g><path class="cls-5" d="m55.3,23.82l-2.33,1.21c-.68-.96-1.62-1.91-2.9-2.64-.01,0-.01-.01-.02-.01-.3-.17-.59-.32-.88-.44-1.54-.66-2.94-.76-3.73-.77-.24-.86-.7-2.15-1.68-3.45-.18-.23-.62-.8-1.33-1.45-.26-.24-.55-.49-.88-.73-1.02-.78-2.38-1.52-4.05-1.84l.15-1.74,3.09,2.6,1.79-3.59,1.83,3.59,3.06-2.58.33,3.99,3.78-1.23-1.21,3.83,3.98.34-2.56,3.08,3.56,1.83Z"/><path class="cls-2" d="m49.17,21.94c-1.54-.66-2.94-.76-3.73-.77-.24-.86-.7-2.15-1.68-3.45-.18-.23-.62-.8-1.33-1.45h.1c.3,0,.6.02.89.07.16.01.32.04.47.07.44.09.86.23,1.26.4.2.08.4.18.59.29.19.1.38.21.55.34.18.11.35.24.5.37.2.16.38.33.56.51.11.11.22.23.32.35.16.19.3.38.44.6.11.15.21.32.31.49.08.15.15.31.22.46.05.1.09.2.13.3.07.17.13.33.18.51.07.2.12.41.17.63,0,.02.01.04.01.06.01.07.03.15.04.22Z"/><path class="cls-3" d="m50.05,22.38c-.3-.17-.59-.32-.88-.44-.01-.07-.03-.15-.04-.22,0-.02-.01-.04-.01-.06-.05-.22-.1-.43-.17-.63-.05-.18-.11-.34-.18-.51-.04-.1-.08-.2-.13-.3-.07-.15-.14-.31-.22-.46-.1-.17-.2-.34-.31-.49-.14-.22-.28-.41-.44-.6-.1-.12-.21-.24-.32-.35-.18-.18-.36-.35-.56-.51-.15-.13-.32-.26-.5-.37-.17-.13-.36-.24-.55-.34-.19-.11-.39-.21-.59-.29-.4-.17-.82-.31-1.26-.4-.15-.03-.31-.06-.47-.07-.29-.05-.59-.07-.89-.07h-.1c-.26-.24-.55-.49-.88-.73,1.44-.22,2.95-.01,4.32.67,2.47,1.22,3.99,3.6,4.18,6.17Z"/></g><path class="cls-4" d="m45.64,22.99c-.52,0-1.03.06-1.54.17-.42-4.32-3.97-7.66-8.3-7.82-2.87.02-5.53,1.54-7,4-1.19-.69-2.54-1.06-3.91-1.06-3.75.08-7,2.61-8,6.23-.29-.04-.58-.06-.87-.06-3.8,0-6.89,3.36-6.89,7.51s3.17,7.53,6.98,7.53h29.53c4.18,0,7.58-3.7,7.58-8.26s-3.39-8.24-7.58-8.24Z"/><path class="cls-8" d="m49.89,31.3c-.16-1.66-1.7-2.94-3.81-3.42-.42-2.49-3.38-4.23-6.84-4-.4.03-.8.09-1.2.18-1.56-1.47-3.68-2.2-5.81-2-2.39.16-4.56,1.44-5.86,3.44-.69.11-1.36.31-2,.58-1.58.48-2.95,1.47-3.9,2.82-.44-.01-.88,0-1.31.06-3.34.4-5.87,2.46-5.66,4.61s3.09,3.57,6.43,3.17c.6-.07,1.19-.2,1.76-.38,1.64.87,3.52,1.19,5.36.93,1.16-.14,2.29-.47,3.33-1,1.55,1.06,3.46,1.48,5.31,1.17,1.48-.15,2.9-.69,4.1-1.57,1.31.5,2.73.67,4.12.48,3.56-.38,6.22-2.68,5.98-5.07Z"/><path class="cls-6" d="m39.61,26.43c-.43.03-.86.09-1.29.17-1.78-1.38-4.02-2.03-6.26-1.83-2.73.19-3.92,1.44-5.19,3.17-3.27.46-6.81,2.2-6.67,4.1.16,2.06,3.28,3.52,7,3.26h0c1.71,1.15,3.77,1.68,5.83,1.51,1.66-.1,3.26-.65,4.64-1.58.88.16,1.77.2,2.66.14,3.9-.27,6.91-2.49,6.71-5s-3.57-4.21-7.43-3.94Z"/><path class="cls-4" d="m39.18,25.65c-.4.03-.8.08-1.2.16-1.64-1.32-3.72-1.94-5.81-1.75-2.3.09-4.44,1.19-5.86,3-3,.44-5.29,2.11-5.15,3.93s3,3.37,6.47,3.12h0c1.58,1.1,3.49,1.61,5.41,1.44,1.55-.1,3.04-.62,4.31-1.51.81.15,1.64.2,2.47.14,3.62-.26,6.41-2.39,6.23-4.76s-3.25-4.03-6.87-3.77Z"/><path class="cls-7" d="m45.62,39.99h-29.53c-4.07,0-7.39-3.59-7.39-8s3.31-8,7.39-8h.53c1.17-3.62,4.5-6.1,8.3-6.19,1.3,0,2.59.31,3.75.9,1.59-2.39,4.25-3.84,7.12-3.87,4.36.18,7.99,3.42,8.66,7.73.37-.06.75-.09,1.13-.09,4.45,0,8.08,3.93,8.08,8.76s-3.59,8.76-8.04,8.76Zm-29.53-15c-3.52,0-6.39,3.14-6.39,7s2.87,7,6.39,7h29.53c3.9,0,7.08-3.48,7.08-7.76s-3.17-7.76-7.08-7.76c-.48,0-.96.05-1.43.16l-.53.12-.07-.54c-.4-4.06-3.73-7.21-7.8-7.38-2.69.04-5.16,1.48-6.53,3.79l-.25.41-.42-.24c-1.11-.65-2.38-1-3.67-1-3.51.11-6.54,2.5-7.47,5.89l-.13.41-.43-.1c-.27-.02-.53-.02-.8,0Z"/></g></svg>