<svg xmlns="http://www.w3.org/2000/svg" xmlns:xlink="http://www.w3.org/1999/xlink" viewBox="0 0 64 64"><defs><style>.cls-1{fill:#fff;}.cls-2{fill:#9d9fa2;}.cls-3{fill:#c7c7c7;}.cls-4{fill:#999;}.cls-5{fill:none;}</style><symbol id="BIG_CLOUD_LIGHT" data-name="BIG CLOUD LIGHT" viewBox="0 0 48 27.28"><g id="BIG_CLOUD" data-name="BIG CLOUD"><g id="new_cloud_gradient" data-name="new cloud gradient"><path class="cls-1" d="M39.39,9.38a7.36,7.36,0,0,0-1.64.19c-.63-4.79-4.35-8.47-8.85-8.47a8.74,8.74,0,0,0-7.42,4.37A8.23,8.23,0,0,0,17.3,4.31a9.08,9.08,0,0,0-8.48,6.75A6.7,6.7,0,0,0,7.88,11C3.82,11,.53,14.64.53,19.14s3.29,8.14,7.35,8.14h31.5c4.46,0,8.08-4,8.08-9S43.85,9.38,39.39,9.38Z"/><path class="cls-2" d="M39.39,27.28H7.88C3.54,27.28,0,23.38,0,18.59S3.54,9.91,7.88,9.91l.56,0A9.54,9.54,0,0,1,17.3,3.22a8.78,8.78,0,0,1,4,1A9.21,9.21,0,0,1,28.89,0c4.5,0,8.41,3.56,9.29,8.38a7.9,7.9,0,0,1,1.2-.09c4.75,0,8.61,4.26,8.61,9.5S44.14,27.28,39.39,27.28ZM7.88,11.09c-3.76,0-6.82,3.41-6.82,7.59s3.06,7.59,6.82,7.59h31.5c4.16,0,7.55-3.77,7.55-8.41s-3.39-8.41-7.55-8.41a6.86,6.86,0,0,0-1.53.17l-.57.13-.08-.59c-.6-4.56-4.18-8-8.33-8a8.22,8.22,0,0,0-7,4.11l-.27.45-.45-.26A7.65,7.65,0,0,0,17.3,4.4a8.54,8.54,0,0,0-8,6.37l-.13.44-.45-.06A6.18,6.18,0,0,0,7.88,11.09Z"/></g><path class="cls-3" d="M43.92,18c-.17-1.8-1.81-3.19-4.07-3.71C39.4,11.59,36.24,9.7,32.55,10a9.37,9.37,0,0,0-1.28.2,7.89,7.89,0,0,0-6.2-2.15,8.1,8.1,0,0,0-6.25,3.73,9.29,9.29,0,0,0-2.15.62,7.9,7.9,0,0,0-4.13,3,9.82,9.82,0,0,0-1.4.07c-3.56.43-6.26,2.67-6,5S8.4,24.33,12,23.89a9.82,9.82,0,0,0,1.87-.41,9.27,9.27,0,0,0,5.71,1,10.57,10.57,0,0,0,3.56-1.08,7.67,7.67,0,0,0,5.67,1.27A8.93,8.93,0,0,0,33.15,23a8.83,8.83,0,0,0,4.39.52C41.31,23.05,44.17,20.59,43.92,18Z"/><path class="cls-4" d="M32.95,12.72a11.68,11.68,0,0,0-1.38.18,9.39,9.39,0,0,0-6.68-2c-2.91.2-4.18,1.56-5.53,3.43-3.49.5-7.27,2.38-7.11,4.44.17,2.23,3.5,3.81,7.43,3.53h0A9.57,9.57,0,0,0,25.9,24a9.81,9.81,0,0,0,5-1.71,11.3,11.3,0,0,0,2.84.15c4.16-.29,7.37-2.7,7.16-5.38S37.11,12.42,32.95,12.72Z"/><path class="cls-1" d="M32.49,11.87a10.52,10.52,0,0,0-1.28.18,8.53,8.53,0,0,0-6.2-1.9,8.31,8.31,0,0,0-6.25,3.29c-3.24.48-5.64,2.28-5.5,4.26.16,2.14,3.25,3.65,6.9,3.39h0A8.68,8.68,0,0,0,26,22.64,8.93,8.93,0,0,0,30.55,21a10.17,10.17,0,0,0,2.64.15C37,20.87,40,18.56,39.84,16S36.36,11.58,32.49,11.87Z"/></g></symbol></defs><title>A005D_LB</title><g id="AOO5D_1" data-name="AOO5D 1"><use width="48" height="27.28" transform="translate(8.5 12.72)" xlink:href="#BIG_CLOUD_LIGHT"/><rect class="cls-5" width="64" height="64"/></g></svg>