<?xml version="1.0" encoding="UTF-8"?><svg id="Layer_1" xmlns="http://www.w3.org/2000/svg" xmlns:xlink="http://www.w3.org/1999/xlink" viewBox="0 0 64 64"><defs><style>.cls-1{fill:none;}.cls-2{fill:url(#linear-gradient);}.cls-3{clip-path:url(#clippath);}.cls-4{fill:#ffe000;}.cls-5{fill:#fff;}.cls-6{fill:#d3d3d3;}.cls-7{fill:#1d475e;}.cls-8{fill:#2c3e44;}.cls-9{opacity:.7;}</style><symbol id="moon_full_2" viewBox="0 0 32 32"><g><path class="cls-7" d="m16,.5C7.44.5.5,7.44.5,16s6.94,15.5,15.5,15.5,15.5-6.94,15.5-15.5c-.01-8.56-6.94-15.49-15.5-15.5Z"/><path class="cls-8" d="m16,31c8.28,0,15-6.72,15-15S24.28,1,16,1,1,7.72,1,16s6.72,15,15,15m0,1C7.16,32,0,24.84,0,16S7.16,0,16,0s16,7.16,16,16-7.16,16-16,16Z"/><path class="cls-4" d="m15.05.5C7,.5.5,7.45.5,16s6.5,15.5,14.55,15.5c2.87-.02,5.69-.7,8.25-2-7.22-.16-13.74-6.5-13.74-13.5S16.08,2.66,23.3,2.5c-2.56-1.3-5.38-1.98-8.25-2Z"/><path class="cls-8" d="m15.05,31c2.16-.02,4.31-.42,6.33-1.18-6.78-1.09-12.32-7.08-12.32-13.82S14.6,3.27,21.38,2.18c-2.02-.76-4.17-1.16-6.33-1.18C7.3,1,1,7.73,1,16s6.3,15,14.05,15m0,1C6.74,32,0,24.84,0,16S6.74,0,15.05,0c3.31,0,7.46,1.07,9.95,3h-1.46c-6.75,0-13.51,5.82-13.51,13s6.79,13,13.54,13h1.43c-2.49,1.93-6.64,3-9.95,3Z"/></g></symbol><symbol id="small_clopud_db" viewBox="0 0 58.02 21.05"><g id="smalls_clouds"><g id="cloud_small_2"><path class="cls-6" d="m58.01,13.88c-.15,1.29-1.59,2.29-3.56,2.66-.44,1.93-3.17,3.29-6.44,3.07-.38-.03-.75-.07-1.12-.14-1.54,1.16-3.46,1.72-5.39,1.56-2.13-.07-4.13-1.05-5.49-2.69-.64-.09-1.27-.24-1.88-.45-1.4-.33-2.66-1.08-3.62-2.15-.41.02-.82.02-1.23,0-3.12-.31-5.48-1.91-5.29-3.58s2.89-2.77,6-2.46c.55.06,1.1.16,1.64.3,1.57-.68,3.3-.93,5-.72,1.08.09,2.14.34,3.15.75,1.52-.85,3.28-1.17,5-.91,1.35.11,2.66.53,3.83,1.22,1.24-.39,2.55-.52,3.85-.38,3.26.29,5.76,2.07,5.55,3.92Z"/><path class="cls-5" d="m47.46,16.84c-.38,0-.76-.06-1.12-.11-1.66.88-3.54,1.27-5.41,1.13-2-.01-3.93-.72-5.46-2-2.83-.29-4.93-1.37-4.8-2.54s2.84-2.18,6-2h0c2.88-1.3,6.18-1.3,9.06,0,.76-.1,1.53-.13,2.3-.09,3.38.17,6,1.55,5.81,3.08s-3.01,2.72-6.38,2.53Z"/><path class="cls-6" d="m28.01,3.26c-.13.86-1.31,1.52-2.93,1.77-.33,1.29-2.6,2.19-5.26,2-.32,0-.62-.05-.92-.1-1.35.78-2.91,1.13-4.47,1-1.67.01-3.28-.59-4.52-1.7-.52-.06-1.04-.16-1.55-.3-1.11-.19-2.15-.69-3-1.43h-1C1.81,4.27-.14,3.2,0,2.08S2.4.24,5.01.44c.45.04.9.1,1.35.2C7.68.18,9.09.02,10.48.16c.86.07,1.71.24,2.53.51C14.29.1,15.7-.11,17.1.06c1.1.06,2.17.34,3.16.81,1.03-.26,2.11-.35,3.17-.25,2.69.23,4.75,1.41,4.58,2.64Z"/><path class="cls-5" d="m19.01,5.47l-.87-.06c-1.32.48-2.73.69-4.13.62-1.47.03-2.93-.31-4.23-1-2.19-.15-3.82-.73-3.72-1.36s2.2-1.16,4.67-1.08h0c1.26-.4,2.59-.57,3.91-.5,1.06.02,2.1.2,3.11.52.6-.04,1.19-.04,1.79,0,2.62.09,4.63.83,4.5,1.64s-2.39,1.31-5.03,1.22Z"/></g></g></symbol><linearGradient id="linear-gradient" x1="32" y1="37.74" x2="32" y2="8.26" gradientUnits="userSpaceOnUse"><stop offset="0" stop-color="#2c3e44" stop-opacity="0"/><stop offset=".39" stop-color="#2c3e44" stop-opacity=".43"/><stop offset=".77" stop-color="#2c3e44" stop-opacity=".9"/></linearGradient><clipPath id="clippath"><rect class="cls-1" x="3" y="3" width="58" height="21"/></clipPath></defs><g id="recuadro_64x64_por_artboard"><rect class="cls-1" width="64" height="64"/></g><g id="A006N"><use width="32" height="32" transform="translate(17 38.08) scale(.94 -.94)" xlink:href="#moon_full_2"/><path class="cls-2" d="m46.74,23c0,8.14-6.61,14.74-14.74,14.74-.1,0-.2,0-.29,0h-.05c-.18,0-.36,0-.53,0-7.18,0-13.08-5.79-13.79-13.23-.05-.5-.07-1-.07-1.51s.03-1.01.07-1.51c.71-7.43,6.61-13.23,13.79-13.23.18,0,.35,0,.53,0h.05c.09,0,.19,0,.29,0,8.13,0,14.74,6.6,14.74,14.74Z"/><g class="cls-9"><g class="cls-3"><use width="58.02" height="21.05" transform="translate(2.85 23.89) scale(1 -1)" xlink:href="#small_clopud_db"/></g></g></g></svg>