<?xml version="1.0" encoding="UTF-8"?><svg id="Layer_1" xmlns="http://www.w3.org/2000/svg" xmlns:xlink="http://www.w3.org/1999/xlink" viewBox="0 0 64 64"><defs><style>.cls-1{fill:none;}.cls-2{fill:url(#linear-gradient);}.cls-3{clip-path:url(#clippath);}.cls-4{fill:#ffe003;}.cls-5{fill:#f7931e;}.cls-6{fill:#fff;}.cls-7{fill:#fdbb11;}.cls-8{fill:#d3d3d3;}.cls-9{opacity:.7;}</style><symbol id="sun_big_full_2" viewBox="0 0 38 38"><g><polygon class="cls-7" points="19 30.4 26.27 36.55 27.06 27.06 36.55 26.27 30.4 19 36.55 11.73 27.06 10.94 26.27 1.45 19 7.6 11.73 1.45 10.94 10.94 1.45 11.73 7.6 19 1.45 26.27 10.94 27.06 11.73 36.55 19 30.4"/><polygon class="cls-7" points="14.64 29.53 19 38 23.36 29.53 32.44 32.43 29.53 23.36 38 19 29.53 14.64 32.44 5.56 23.36 8.47 19 0 14.64 8.47 5.57 5.56 8.47 14.64 0 19 8.47 23.36 5.57 32.43 14.64 29.53"/><g id="_Group_"><path class="cls-4" d="m19,8.5c-5.8,0-10.5,4.7-10.5,10.5s4.7,10.5,10.5,10.5,10.5-4.7,10.5-10.5h0c0-5.8-4.7-10.49-10.5-10.5Z"/><path class="cls-5" d="m19,29c5.52,0,10-4.48,10-10s-4.48-10-10-10-10,4.48-10,10,4.48,10,10,10m0,1c-6.08,0-11-4.92-11-11s4.92-11,11-11,11,4.92,11,11-4.92,11-11,11Z"/></g></g></symbol><linearGradient id="linear-gradient" x1="32" y1="40.02" x2="32" y2="2.02" gradientUnits="userSpaceOnUse"><stop offset=".06" stop-color="#fff" stop-opacity="0"/><stop offset=".17" stop-color="#fff" stop-opacity=".1"/><stop offset=".41" stop-color="#fff" stop-opacity=".36"/><stop offset=".74" stop-color="#fff" stop-opacity=".77"/><stop offset=".77" stop-color="#fff" stop-opacity=".8"/></linearGradient><clipPath id="clippath"><rect class="cls-1" x="3" y="3.02" width="58" height="21"/></clipPath></defs><g id="recuadro_64x64_por_artboard"><rect class="cls-1" width="64" height="64"/></g><g id="A006D"><use id="sun_big_full-3" width="38" height="38" transform="translate(13 40.02) scale(1 -1)" xlink:href="#sun_big_full_2"/><g id="_Group_-2"><polygon class="cls-2" points="49.55 28.29 43.62 28.78 45.44 34.45 39.76 32.64 39.27 38.57 34.73 34.73 32 40.02 29.27 34.73 24.73 38.57 24.24 32.64 18.57 34.45 20.38 28.78 14.45 28.29 18.29 23.75 13 21.02 18.29 18.29 14.45 13.75 20.38 13.26 18.57 7.58 24.24 9.4 24.73 3.47 29.27 7.31 32 2.02 34.73 7.31 39.27 3.47 39.76 9.4 45.44 7.58 43.62 13.26 49.55 13.75 45.71 18.29 51 21.02 45.71 23.75 49.55 28.29"/></g><g class="cls-9"><g class="cls-3"><g id="smalls_clouds"><g id="cloud_small_2"><path class="cls-8" d="m55.31,13.95c-1.3.14-2.61.01-3.85-.38-1.17.69-2.48,1.11-3.83,1.22-1.72.26-3.48-.06-5-.91-1.01.41-2.07.66-3.15.75-1.7.21-3.43-.04-5-.72-.54.14-1.09.24-1.64.3-3.11.31-5.81-.79-6-2.46s2.17-3.27,5.29-3.58c.41-.02.82-.02,1.23,0,.96-1.07,2.22-1.82,3.62-2.15.61-.21,1.24-.36,1.88-.45,1.36-1.64,3.36-2.62,5.49-2.69,1.93-.16,3.85.4,5.39,1.56.37-.07.74-.11,1.12-.14,3.27-.22,6,1.14,6.44,3.07,1.97.37,3.41,1.37,3.56,2.66.21,1.85-2.29,3.63-5.55,3.92Z"/><path class="cls-6" d="m56.69,9.6c.19,1.53-2.43,2.91-5.81,3.08-.77.04-1.54,0-2.3-.09-2.88,1.3-6.18,1.3-9.06,0h0c-3.16.18-5.87-.83-6-2-.13-1.17,1.97-2.25,4.8-2.54,1.53-1.28,3.46-1.99,5.46-2,1.87-.14,3.75.25,5.41,1.13.36-.05.74-.11,1.12-.11,3.37-.19,6.19,1,6.38,2.53Z"/><path class="cls-8" d="m26.28,23.29c-1.06.1-2.14.01-3.17-.25-.99.47-2.06.75-3.16.81-1.39.17-2.81-.04-4.09-.61-.82.27-1.67.44-2.53.51-1.39.14-2.8-.02-4.12-.48-.45.1-.9.16-1.35.2-2.61.2-4.85-.52-5-1.64s1.8-2.19,4.35-2.42h1c.85-.74,1.89-1.24,3-1.43.51-.14,1.03-.24,1.55-.3,1.24-1.11,2.85-1.71,4.52-1.7,1.56-.13,3.12.22,4.47,1,.3-.05.6-.1.92-.1,2.66-.19,4.93.71,5.26,2,1.62.25,2.8.91,2.93,1.77.17,1.23-1.89,2.41-4.58,2.64Z"/><path class="cls-6" d="m26.89,19.66c.13.81-1.88,1.55-4.5,1.64-.6.04-1.19.04-1.79,0-1.01.32-2.05.5-3.11.52-1.32.07-2.65-.1-3.91-.5h0c-2.47.08-4.57-.45-4.67-1.08s1.53-1.21,3.72-1.36c1.3-.69,2.76-1.03,4.23-1,1.4-.07,2.81.14,4.13.62l.87-.06c2.64-.09,4.9.41,5.03,1.22Z"/></g></g></g></g></g></svg>