<?xml version="1.0" encoding="UTF-8"?><svg id="Layer_1" xmlns="http://www.w3.org/2000/svg" xmlns:xlink="http://www.w3.org/1999/xlink" viewBox="0 0 64 64"><defs><linearGradient id="linear-gradient" x1="32.02" y1="26" x2="32.02" y2="64" gradientTransform="translate(0 66) scale(1 -1)" gradientUnits="userSpaceOnUse"><stop offset=".06" stop-color="#fff" stop-opacity="0"/><stop offset=".17" stop-color="#fff" stop-opacity=".1"/><stop offset=".41" stop-color="#fff" stop-opacity=".36"/><stop offset=".74" stop-color="#fff" stop-opacity=".77"/><stop offset=".77" stop-color="#fff" stop-opacity=".8"/></linearGradient></defs><g id="recuadro_64x64_por_artboard"><rect width="64" height="64" style="fill:none;"/></g><g><polygon points="32.02 32.4 39.29 38.55 40.08 29.06 49.57 28.27 43.42 21 49.57 13.73 40.08 12.94 39.29 3.45 32.02 9.6 24.75 3.45 23.96 12.94 14.47 13.73 20.62 21 14.47 28.27 23.96 29.06 24.75 38.55 32.02 32.4" style="fill:#fdbb11;"/><polygon points="27.66 31.53 32.02 40 36.38 31.53 45.46 34.43 42.55 25.36 51.02 21 42.55 16.64 45.46 7.56 36.38 10.47 32.02 2 27.66 10.47 18.59 7.56 21.49 16.64 13.02 21 21.49 25.36 18.59 34.43 27.66 31.53" style="fill:#fdbb11;"/><g id="_Group_"><path d="m32.02,10.5c-5.8,0-10.5,4.7-10.5,10.5s4.7,10.5,10.5,10.5,10.5-4.7,10.5-10.5h0c0-5.8-4.7-10.49-10.5-10.5Z" style="fill:#ffe003;"/><path d="m32.02,31c5.52,0,10-4.48,10-10s-4.48-10-10-10-10,4.48-10,10,4.48,10,10,10m0,1c-6.08,0-11-4.92-11-11s4.92-11,11-11,11,4.92,11,11-4.92,11-11,11Z" style="fill:#f7931e;"/></g><g id="_Group_-2"><polygon points="49.57 28.27 43.64 28.76 45.46 34.43 39.78 32.62 39.29 38.55 34.75 34.71 32.02 40 29.29 34.71 24.75 38.55 24.26 32.62 18.59 34.43 20.4 28.76 14.47 28.27 18.31 23.73 13.02 21 18.31 18.27 14.47 13.73 20.4 13.24 18.59 7.56 24.26 9.38 24.75 3.45 29.29 7.29 32.02 2 34.75 7.29 39.29 3.45 39.78 9.38 45.46 7.56 43.64 13.24 49.57 13.73 45.73 18.27 51.02 21 45.73 23.73 49.57 28.27" style="fill:url(#linear-gradient);"/></g><path d="m39.7,4.38h-.52c-.81-.29-1.67-.41-2.53-.37-.89-.01-1.77.21-2.55.63-1.33.09-2.31.44-2.25.82s1.33.69,2.82.65h0c.76.24,1.56.34,2.36.3.64-.02,1.27-.12,1.88-.32.36.02.72.02,1.08,0,1.58-.06,2.8-.5,2.72-.99s-1.41-.79-3-.73h-.01Z" style="fill:#fff; isolation:isolate; opacity:.7;"/><g><g style="opacity:.7;"><path d="m55.24,17.77c-1.3.14-2.61.01-3.85-.38-1.17.69-2.48,1.11-3.83,1.22-1.72.26-3.48-.06-5-.91-1.01.41-2.07.66-3.15.75-1.7.21-3.43-.04-5-.72-.54.14-1.09.24-1.64.3-3.11.31-5.81-.79-6-2.46-.19-1.67,2.17-3.27,5.29-3.58.41-.02.82-.02,1.23,0,.96-1.07,2.22-1.82,3.62-2.15.61-.21,1.24-.36,1.88-.45,1.36-1.64,3.36-2.62,5.49-2.69,1.93-.16,3.85.4,5.39,1.56.37-.07.74-.11,1.12-.14,3.27-.22,6,1.14,6.44,3.07,1.97.37,3.41,1.37,3.56,2.66.21,1.85-2.29,3.63-5.55,3.92Z" style="fill:#d3d3d3;"/><path d="m56.62,13.42c.19,1.53-2.43,2.91-5.81,3.08-.77.04-1.54,0-2.3-.09-2.88,1.3-6.18,1.3-9.06,0h0c-3.16.18-5.87-.83-6-2s1.97-2.25,4.8-2.54c1.53-1.28,3.46-1.99,5.46-2,1.87-.14,3.75.25,5.41,1.13.36-.05.74-.11,1.12-.11,3.37-.19,6.19,1,6.38,2.53Z" style="fill:#fff;"/></g><g style="opacity:.7;"><path d="m42.97,7.25c-.64.06-1.29,0-1.92-.15-.6.28-1.25.45-1.91.49-.84.1-1.7-.03-2.48-.37-.5.16-1.01.27-1.53.31-.84.08-1.69-.01-2.5-.29-.27.06-.54.1-.82.12-1.58.12-2.94-.31-3.03-.99s1.09-1.33,2.63-1.47h.61c.51-.45,1.14-.75,1.82-.87.31-.09.62-.15.94-.18.75-.67,1.73-1.04,2.74-1.03.94-.08,1.89.13,2.71.61.18-.03.36-.06.56-.06,1.61-.12,2.99.43,3.19,1.21.98.15,1.7.55,1.77,1.07.1.75-1.14,1.46-2.77,1.6h-.01Z" style="fill:#d3d3d3;"/><path d="m43.34,5.06c.08.49-1.14.94-2.73.99-.36.02-.72.02-1.08,0-.61.19-1.24.3-1.88.31-.8.04-1.6-.06-2.37-.3h0c-1.5.05-2.77-.27-2.83-.65s.93-.73,2.25-.82c.79-.42,1.67-.63,2.56-.61.85-.04,1.7.09,2.5.38l.53-.04c1.6-.05,2.97.25,3.05.74Z" style="fill:#fff;"/></g><g style="opacity:.7;"><path d="m26.15,17.83c-.95.09-1.92.01-2.85-.22-.89.42-1.85.67-2.84.73-1.25.15-2.52-.04-3.67-.55-.74.24-1.5.4-2.27.46-1.25.13-2.51-.02-3.7-.43-.4.09-.8.15-1.21.18-2.34.18-4.35-.47-4.49-1.47s1.62-1.97,3.9-2.17h.9c.76-.67,1.69-1.11,2.69-1.28.46-.13.92-.22,1.39-.27,1.12-.99,2.56-1.54,4.06-1.53,1.4-.12,2.8.19,4.01.9.27-.04.54-.09.83-.09,2.39-.17,4.43.64,4.72,1.8,1.45.22,2.51.82,2.63,1.59.15,1.1-1.7,2.16-4.11,2.37v-.02Z" style="fill:#d3d3d3;"/><path d="m26.69,14.58c.12.73-1.69,1.39-4.04,1.47-.54.03-1.07.03-1.61,0-.9.29-1.84.45-2.79.47-1.19.06-2.38-.09-3.51-.45h0c-2.22.07-4.1-.4-4.19-.97s1.37-1.09,3.34-1.22c1.17-.62,2.48-.93,3.8-.9,1.26-.06,2.52.13,3.71.56l.78-.05c2.37-.08,4.4.37,4.52,1.1h0Z" style="fill:#fff;"/></g><g style="opacity:.7;"><path d="m30.63,10.69c-.78.07-1.56,0-2.31-.18-.72.34-1.51.54-2.31.59-1.02.12-2.05-.03-2.98-.45-.6.2-1.22.32-1.85.37-1.02.1-2.04-.02-3.01-.35-.32.07-.65.12-.99.15-1.9.15-3.54-.38-3.65-1.2s1.31-1.6,3.17-1.77h.73c.62-.54,1.38-.9,2.19-1.04.37-.1.75-.18,1.13-.22.91-.81,2.08-1.25,3.3-1.24,1.14-.1,2.28.16,3.26.73.22-.04.44-.07.67-.07,1.94-.14,3.6.52,3.84,1.46,1.18.18,2.04.66,2.14,1.29.12.9-1.38,1.76-3.34,1.93h.01Z" style="fill:#d3d3d3;"/><path d="m31.07,8.04c.09.59-1.37,1.13-3.28,1.2-.44.03-.87.03-1.31,0-.73.23-1.5.36-2.27.38-.97.05-1.93-.08-2.85-.36h0c-1.8.06-3.34-.33-3.41-.79s1.12-.88,2.71-.99c.95-.5,2.01-.75,3.09-.73,1.02-.05,2.05.1,3.01.45l.63-.04c1.93-.07,3.58.3,3.67.89h.01Z" style="fill:#fff;"/></g><g style="opacity:.7;"><path d="m25.56,29.27c-.64.06-1.29,0-1.92-.15-.6.28-1.25.45-1.91.49-.84.1-1.7-.03-2.48-.37-.5.16-1.01.27-1.53.31-.84.08-1.69-.01-2.5-.29-.27.06-.54.1-.82.12-1.58.12-2.94-.31-3.03-.99s1.09-1.33,2.63-1.47h.61c.51-.45,1.14-.75,1.82-.87.31-.09.62-.15.94-.18.75-.67,1.73-1.04,2.74-1.03.94-.08,1.89.13,2.71.61.18-.03.36-.06.56-.06,1.61-.12,2.99.43,3.19,1.21.98.15,1.7.55,1.77,1.07.1.75-1.14,1.46-2.77,1.6h-.01Z" style="fill:#d3d3d3;"/><path d="m25.92,27.07c.08.49-1.14.94-2.73.99-.36.02-.72.02-1.08,0-.61.19-1.24.3-1.88.31-.8.04-1.6-.06-2.37-.3h0c-1.5.05-2.77-.27-2.83-.65s.93-.73,2.25-.82c.79-.42,1.67-.63,2.56-.61.85-.04,1.7.09,2.5.38l.53-.04c1.6-.05,2.97.25,3.05.74Z" style="fill:#fff;"/></g><g style="opacity:.7;"><path d="m50.35,33.03c-.88.08-1.77,0-2.63-.21-.82.39-1.72.62-2.63.67-1.16.14-2.33-.04-3.4-.51-.68.23-1.39.37-2.1.42-1.16.12-2.32-.02-3.42-.4-.37.08-.74.14-1.12.17-2.17.17-4.03-.43-4.15-1.36s1.5-1.82,3.61-2.01h.83c.71-.62,1.57-1.03,2.49-1.19.42-.12.85-.2,1.29-.25,1.03-.92,2.37-1.42,3.76-1.41,1.29-.11,2.59.18,3.71.83.25-.04.5-.08.76-.08,2.21-.16,4.1.59,4.37,1.66,1.35.21,2.33.76,2.43,1.47.14,1.02-1.57,2-3.81,2.19h.01Z" style="fill:#d3d3d3;"/><path d="m50.85,30.01c.11.67-1.56,1.29-3.74,1.36-.5.03-.99.03-1.49,0-.84.27-1.71.41-2.58.43-1.1.05-2.2-.09-3.25-.42h0c-2.05.07-3.8-.37-3.88-.9s1.27-1.01,3.09-1.13c1.08-.57,2.29-.86,3.51-.83,1.17-.06,2.33.12,3.43.52l.72-.05c2.19-.07,4.07.34,4.18,1.01h.01Z" style="fill:#fff;"/></g></g></g></svg>