<svg xmlns="http://www.w3.org/2000/svg" xmlns:xlink="http://www.w3.org/1999/xlink" viewBox="0 0 64 64"><defs><style>.cls-1{fill:#1db2e6;}.cls-2{fill:#fdbb12;}.cls-3{fill:#fdbb11;}.cls-4{fill:#ffe003;}.cls-5{fill:#f7931e;}.cls-6{fill:#ccc;}.cls-7{fill:#9d9fa2;}.cls-8{fill:#999;}.cls-9{fill:#828282;}.cls-10{fill:#ebebeb;}</style><symbol id="FLASH" data-name="FLASH" viewBox="0 0 10 18"><path class="cls-2" d="M10,6H6l4-6H4L0,9H3L0,18Z"/></symbol><symbol id="_3_drops_blue" data-name="3 drops blue" viewBox="0 0 16.72 16"><path class="cls-1" d="M5.62,4.53,4.4,0,2,2.23l-1.08,1a2.73,2.73,0,0,0-.82,1.4,2.68,2.68,0,0,0,.28,2h0A2.84,2.84,0,0,0,2.07,7.89h0a2.93,2.93,0,0,0,2.18-.24A2.74,2.74,0,0,0,5.62,4.53Z"/><path class="cls-1" d="M16.63,4.53,15.41,0h0L11.9,3.22a2.71,2.71,0,0,0-.54,3.36A2.78,2.78,0,0,0,11.7,7l0,0a2.83,2.83,0,0,0,.82.62l.28.11.23.09h0a2.93,2.93,0,0,0,2.17-.24A2.74,2.74,0,0,0,16.63,4.53Z"/><path class="cls-1" d="M9.92,13,8.85,9h0L7,10.68,5.78,11.81a2.43,2.43,0,0,0-.48.62,2.36,2.36,0,0,0,0,2.32,2.54,2.54,0,0,0,3.4.94A2.4,2.4,0,0,0,9.92,13Z"/></symbol><symbol id="nube_gris_sol_LB_" data-name="nube gris sol LB " viewBox="0 0 51 35"><path class="cls-3" d="M46.17,27.45l.14,0-.11-.34C46.2,27.26,46.18,27.35,46.17,27.45Z"/><path class="cls-3" d="M51,16.11,46.54,13.8l3.24-3.85-5-.42,1.53-4.81L41.54,6.26l-.42-5L37.29,4.49,35,0,32.7,4.49,28.88,1.23l-.42,5L23.68,4.72,25,8.82a9.47,9.47,0,0,1,2.09-.24,10.27,10.27,0,0,1,9.68,7.65h.17a9.37,9.37,0,0,1,8.68,6.39l4.17-.35-3.24-3.85Z"/><path class="cls-4" d="M36.76,16.23h.17a8.88,8.88,0,0,1,5.81,2.2A8.48,8.48,0,0,0,35,6.63a8.33,8.33,0,0,0-5.66,2.23A10.48,10.48,0,0,1,36.76,16.23Z"/><path class="cls-5" d="M29.33,8.86A8.33,8.33,0,0,1,35,6.63a8.48,8.48,0,0,1,7.74,11.8,9.65,9.65,0,0,1,.76.72A9.41,9.41,0,0,0,28.13,8.65,9.45,9.45,0,0,1,29.33,8.86Z"/><path class="cls-6" d="M36.92,18a7,7,0,0,0-1.54.17,8.66,8.66,0,0,0-8.3-7.82,8.22,8.22,0,0,0-7,4,7.81,7.81,0,0,0-3.91-1.06,8.49,8.49,0,0,0-8,6.23,6.38,6.38,0,0,0-.87-.06C3.58,19.48.5,22.84.5,27S3.58,34.5,7.39,34.5H36.92c4.18,0,7.58-3.7,7.58-8.26S41.11,18,36.92,18Z"/><path class="cls-7" d="M36.92,35H7.39C3.31,35,0,31.41,0,27s3.31-8,7.39-8l.53,0a8.93,8.93,0,0,1,8.3-6.19,8.33,8.33,0,0,1,3.75.9,8.67,8.67,0,0,1,7.12-3.87,9.15,9.15,0,0,1,8.71,7.73,7.53,7.53,0,0,1,1.13-.09c4.45,0,8.08,3.93,8.08,8.76S41.37,35,36.92,35ZM7.39,20C3.87,20,1,23.13,1,27s2.87,7,6.39,7H36.92c3.9,0,7.08-3.48,7.08-7.76s-3.17-7.76-7.08-7.76a6.53,6.53,0,0,0-1.43.16l-.53.12-.07-.54a8.19,8.19,0,0,0-7.8-7.38,7.72,7.72,0,0,0-6.53,3.79L20.3,15l-.42-.24a7.26,7.26,0,0,0-3.67-1,8,8,0,0,0-7.47,5.88l-.13.41L8.19,20A5.88,5.88,0,0,0,7.39,20Z"/><path class="cls-8" d="M41.17,26.31c-.16-1.66-1.7-2.94-3.81-3.42-.42-2.49-3.38-4.23-6.84-4a8.92,8.92,0,0,0-1.2.18,7.47,7.47,0,0,0-5.81-2,7.61,7.61,0,0,0-5.86,3.44,8.81,8.81,0,0,0-2,.58,7.4,7.4,0,0,0-3.87,2.76,9.35,9.35,0,0,0-1.31.06c-3.34.4-5.87,2.46-5.66,4.61s3.09,3.57,6.43,3.17A9.34,9.34,0,0,0,13,31.37a8.81,8.81,0,0,0,5.36.93,10,10,0,0,0,3.33-1A7.28,7.28,0,0,0,27,32.48a8.45,8.45,0,0,0,4.1-1.57,8.4,8.4,0,0,0,4.12.48C38.73,31,41.41,28.7,41.17,26.31Z"/><path class="cls-9" d="M30.89,21.44a11.12,11.12,0,0,0-1.29.17,8.9,8.9,0,0,0-6.26-1.83c-2.73.19-3.92,1.44-5.19,3.17-3.27.46-6.81,2.2-6.67,4.1.16,2.06,3.28,3.52,7,3.26h0a9.08,9.08,0,0,0,5.83,1.51,9.29,9.29,0,0,0,4.64-1.58,10.76,10.76,0,0,0,2.66.14c3.9-.27,6.91-2.49,6.71-5S34.79,21.17,30.89,21.44Z"/><path class="cls-10" d="M30.46,20.66a10,10,0,0,0-1.2.16,8.08,8.08,0,0,0-5.81-1.75,7.83,7.83,0,0,0-5.86,3c-3,.44-5.29,2.11-5.15,3.93s3,3.37,6.47,3.12h0a8.23,8.23,0,0,0,5.41,1.44,8.46,8.46,0,0,0,4.31-1.51,9.68,9.68,0,0,0,2.47.14c3.62-.26,6.41-2.39,6.23-4.76S34.08,20.4,30.46,20.66Z"/></symbol></defs><title>K002D_LB</title><g id="line_1_names" data-name="line 1 names"><use width="10" height="18" transform="translate(32.01 44)" xlink:href="#FLASH"/><use id="_3_drops_blue-3" data-name="3 drops blue" width="16.72" height="16" transform="translate(11.46 44)" xlink:href="#_3_drops_blue"/><g id="cloud_sun_cut_-_small_sun-2" data-name="cloud sun cut - small sun"><use width="51" height="35" transform="translate(9.13 5)" xlink:href="#nube_gris_sol_LB_"/></g></g></svg>