<svg xmlns="http://www.w3.org/2000/svg" xmlns:xlink="http://www.w3.org/1999/xlink" viewBox="0 0 64 64"><defs><style>.cls-1{fill:#1db2e6;}.cls-2{fill:#bfbfbf;}.cls-3{fill:#9d9fa2;}.cls-4{fill:#999;}.cls-5{fill:#828282;}.cls-6{fill:#ebebeb;}.cls-7{fill:#fdbb12;}.cls-8{fill:none;}</style><symbol id="BIG_CLOUD_DARKT" data-name="BIG CLOUD DARKT" viewBox="0 0 48 27.27"><g id="new_cloud_gradient" data-name="new cloud gradient"><path class="cls-2" d="M39.38,8.38a7.36,7.36,0,0,0-1.64.19C37.11,3.77,33.39.09,28.89.09a8.74,8.74,0,0,0-7.42,4.37A8.23,8.23,0,0,0,17.3,3.31a9.08,9.08,0,0,0-8.48,6.75A6.7,6.7,0,0,0,7.88,10C3.82,10,.53,13.64.53,18.14s3.29,8.14,7.35,8.14h31.5c4.46,0,8.08-4,8.08-8.95S43.85,8.38,39.38,8.38Z"/><path class="cls-3" d="M39.38,27.27H7.88C3.54,27.27,0,23.38,0,18.59S3.54,9.91,7.88,9.91l.56,0A9.54,9.54,0,0,1,17.3,3.22a8.78,8.78,0,0,1,4,1A9.21,9.21,0,0,1,28.89,0c4.5,0,8.41,3.56,9.29,8.38a7.91,7.91,0,0,1,1.2-.09c4.75,0,8.62,4.26,8.62,9.49S44.14,27.27,39.38,27.27ZM7.88,11.09c-3.76,0-6.82,3.41-6.82,7.59s3.06,7.59,6.82,7.59h31.5c4.16,0,7.55-3.77,7.55-8.4s-3.39-8.4-7.55-8.4a6.86,6.86,0,0,0-1.53.17l-.57.13-.08-.59c-.6-4.56-4.18-8-8.32-8a8.22,8.22,0,0,0-7,4.11l-.27.45-.45-.26A7.65,7.65,0,0,0,17.3,4.4a8.53,8.53,0,0,0-8,6.37l-.13.44-.45-.06A6.18,6.18,0,0,0,7.88,11.09Z"/></g><path class="cls-4" d="M43.92,17.49c-.17-1.8-1.81-3.19-4.07-3.71-.45-2.69-3.61-4.59-7.29-4.28a9.38,9.38,0,0,0-1.28.2,7.89,7.89,0,0,0-6.2-2.15,8.1,8.1,0,0,0-6.25,3.73,9.29,9.29,0,0,0-2.15.62,7.9,7.9,0,0,0-4.13,3,9.82,9.82,0,0,0-1.4.07c-3.56.43-6.26,2.67-6,5S8.4,23.82,12,23.39A9.83,9.83,0,0,0,13.83,23a9.27,9.27,0,0,0,5.71,1A10.58,10.58,0,0,0,23.1,22.9a7.67,7.67,0,0,0,5.67,1.27,8.93,8.93,0,0,0,4.38-1.7,8.84,8.84,0,0,0,4.39.52C41.31,22.55,44.17,20.08,43.92,17.49Z"/><path class="cls-5" d="M32.95,12.21a11.68,11.68,0,0,0-1.38.18,9.39,9.39,0,0,0-6.68-2c-2.91.2-4.18,1.56-5.53,3.43-3.49.5-7.27,2.38-7.11,4.44.17,2.23,3.5,3.81,7.43,3.53h0a9.57,9.57,0,0,0,6.22,1.63,9.81,9.81,0,0,0,5-1.71,11.3,11.3,0,0,0,2.84.15c4.16-.29,7.37-2.7,7.16-5.38S37.11,11.92,32.95,12.21Z"/><path class="cls-6" d="M32.49,11.36a10.53,10.53,0,0,0-1.28.18A8.53,8.53,0,0,0,25,9.64a8.31,8.31,0,0,0-6.25,3.29c-3.24.48-5.64,2.28-5.5,4.26.16,2.13,3.25,3.65,6.9,3.38h0A8.68,8.68,0,0,0,26,22.13a8.93,8.93,0,0,0,4.6-1.64,10.17,10.17,0,0,0,2.64.15c3.86-.28,6.84-2.59,6.65-5.15S36.36,11.08,32.49,11.36Z"/></symbol><symbol id="FLASH" data-name="FLASH" viewBox="0 0 10 18"><path class="cls-7" d="M10,6H6l4-6H4L0,9H3L0,18Z"/></symbol><symbol id="_3_drops_blue-2" data-name="3 drops blue" viewBox="0 0 16.72 16"><path class="cls-1" d="M5.62,4.53,4.4,0,2,2.23l-1.08,1a2.73,2.73,0,0,0-.82,1.4,2.68,2.68,0,0,0,.28,2h0A2.84,2.84,0,0,0,2.07,7.89h0a2.93,2.93,0,0,0,2.18-.24A2.74,2.74,0,0,0,5.62,4.53Z"/><path class="cls-1" d="M16.63,4.53,15.41,0h0L11.9,3.22a2.71,2.71,0,0,0-.54,3.36A2.78,2.78,0,0,0,11.7,7l0,0a2.83,2.83,0,0,0,.82.62l.28.11.23.09h0a2.93,2.93,0,0,0,2.17-.24A2.74,2.74,0,0,0,16.63,4.53Z"/><path class="cls-1" d="M9.92,13,8.85,9h0L7,10.68,5.78,11.81a2.43,2.43,0,0,0-.48.62,2.36,2.36,0,0,0,0,2.32,2.54,2.54,0,0,0,3.4.94A2.4,2.4,0,0,0,9.92,13Z"/></symbol></defs><title>L001N_LB</title><g id="recuadro_64x64_por_artboard" data-name="recuadro 64x64 por artboard"><rect class="cls-8" width="64" height="64"/></g><g id="Layer_224" data-name="Layer 224"><use width="48" height="27.27" transform="translate(8 12.72)" xlink:href="#BIG_CLOUD_DARKT"/></g><g id="line_1_names" data-name="line 1 names"><use width="10" height="18" transform="translate(36.01 44)" xlink:href="#FLASH"/><use id="_3_drops_blue-4" data-name="3 drops blue" width="16.72" height="16" transform="translate(15.46 44)" xlink:href="#_3_drops_blue-2"/></g></svg>